<?xml version="1.0" encoding="utf-8"?>
<!-- Generator: Adobe Illustrator 19.0.0, SVG Export Plug-In . SVG Version: 6.00 Build 0)  -->
<svg version="1.1" id="Layer_1" xmlns="http://www.w3.org/2000/svg" xmlns:xlink="http://www.w3.org/1999/xlink" x="0px" y="0px"
	 viewBox="0 0 86.6 86.5" style="enable-background:new 0 0 86.6 86.5;" xml:space="preserve">
<style type="text/css">
	.st0{fill:#1C9BBE;}
	.st1{fill:#8CC47C;}
	.st2{opacity:0.6;fill:#062730;}
</style>
<g>
	<g>
		<circle id="XMLID_10_" class="st0" cx="43.2" cy="43.2" r="43.2"/>
		<g>
			<g>
				<path id="XMLID_9_" class="st1" d="M15.7,50C15.7,50.1,15.6,50.1,15.7,50C15.6,50.1,15.7,50.1,15.7,50z"/>
				<path id="XMLID_8_" class="st1" d="M41.7,49.5l-4.6-3.1l-1.7-0.1l-1.5-3l-2.9-1.5l-3.2,0.1l-1.5,1.3l-1.5-2.9l-3.2,0.1l-1.3,1.4
					H17l-0.1-1.5l-1.4-1.4l-0.1-1.6c0,0-1.8-0.3-1.7,0.1c0.1,0.4-1.4,1.3-1.4,1.3c-0.3-0.2-1.5-2.9-1.5-2.9l1.4-1.5
					c0,0,4.4,0.1,4.9,0c0.4-0.1,2.6,1.2,2.9,1.4c0.3,0.2,3.3-3,3.2-3.3c-0.1-0.2,1.5-5.5,1.5-5.8c0-0.3,3-3.1,3-3.1l4.8-0.1l0-3
					l0.5,0l4.2,1.6l2.9-3.1l-1.6-0.1c0.2-1-2.6-4.8-2.9-4.5c-0.3,0.3-2.8,1.5-2.8,1.5l-6.4,0.1c0,0-1.6,2.9-1.7,3L23.3,17l-1.7-0.1
					l0.1-3.1l4-1.4l0.7,0l1.6,1.5l4.1-1.5l3.5-0.1c-0.3-2.2-3-4.6-3-4.6h-3.2c0.3,0.4-4.1,2.9-4.1,2.9c-0.2,0.1-0.8,0-0.8,0
					c-0.6-1.9-5.6-3.1-5.6-3.1l-0.1,0c-16.5,11.2-18.2,29-18.2,29l0.2,0.2L1.4,37l1.9,0.2l1.4,1.4c0,0-0.1-0.4,1.8,0
					c1.9,0.4,4.2,3,4.2,3l3.3,0.1l1.4,1.5h3.1l0,1.7c0,0-1.5,1.2-1.8,1.8c-0.3,0.6-0.9,2.8-1.1,3.3c0,0,0.1,0.1,0.1,1.3
					c0,1.9,4.4,5.7,4.4,5.7l3,0.1l0.1,3.2l3,5.6c0,0-0.3,3.7,0,3.7c0,0,0.8,2.4,1.3,2.5c0,0,1.1,2.8,1.1,3c0,0,0.6,1.2,0.7,1.8
					c0.2,0.6,1.6,1.8,1.6,1.8l2.9-0.1c0,0-1.4-1.6-1.7-1.9c-0.3-0.3-1.3-2.3-1.3-2.3s0.1-0.1,0-0.7c-0.1-0.5,1.4-3.6,1.4-4.1
					c0-0.5,3.3-1.7,3.3-1.7l0-4.7l3.1-1.5c0,0-0.1-2.8,0.1-3.1c0.2-0.3,2.5-0.9,3-1.6c0.5-0.7,1.3-4.3,1.4-4.5
					C43.3,52.4,41.8,49.2,41.7,49.5z"/>
			</g>
			<polygon id="XMLID_7_" class="st1" points="32.5,26.4 34,27.7 35.5,26.4 34,24.8 32.3,24.8 32.3,26.1 			"/>
			<polygon id="XMLID_6_" class="st1" points="36.9,26.1 35.3,24.8 35.5,23.2 38.6,23.2 38.4,24.7 37.3,25.9 			"/>
			<polygon id="XMLID_5_" class="st1" points="57.1,15.5 57.1,17 58.7,18.4 59.8,17.1 58.8,15.7 			"/>
			<polygon id="XMLID_4_" class="st1" points="60.4,15.5 61.7,14.2 64.6,15.5 63.3,18.4 61.8,18.4 61.8,16.8 			"/>
			<path id="XMLID_3_" class="st1" d="M67.9,7.7v4.5c0,0,0.2,0.5,1.8,2l2.9,1.1l-1.4,1.6l-3.3,0.2l-1.5,1.2v3.1l-1.5-1.3l-3.2,0
				l-1.3,2.9l1.5,2.9l2.7,0.3l2-1.9c0,0,3-0.9,4.1-2.6c1.1-1.7,1.4,2.2,1.4,2.2l0.4,2.4l1.5,1.3l2.9-1.4l-2.6-3.1l1.2-1.4l3,2.6
				l0.2,1.8l1.8,0.2l1.3,1.4l1.8,0.2C83.6,27.8,79.7,15.8,67.9,7.7z"/>
			<path id="XMLID_2_" class="st1" d="M76.2,71.3L74,69.6v-3.2l-2.7-5.6l2.9-3.5l-1.4-2.9l0.1-3.6l-2.7-1.1L67,49.2l-3.2,1.9
				l-3.4-0.3l-3.3-1.4c0,0-1.6-4-1.6-4.2c0-0.2,0-4.6,0-4.6l1.3-1.4l0.3-5.4l1.4-1.3h3l2.3-1.4l5.6-0.4l4.3,2.9c0,0,3.8-2.7,5.1-2.3
				c1.3,0.3,2.1,0.9,2.9,1c0.8,0.1,3.4,0.1,3.4,0.1S92.1,52.2,76.2,71.3z"/>
		</g>
	</g>
	<path id="XMLID_1_" class="st2" d="M67.5,7.3c4.6,6.9,7.3,15.1,7.3,24.1c0,23.9-19.4,43.2-43.2,43.2c-8.9,0-17.2-2.7-24.1-7.3
		c7.8,11.6,21,19.2,35.9,19.2c23.9,0,43.2-19.4,43.2-43.2C86.6,28.2,79,15.1,67.5,7.3z"/>
</g>
</svg>
