<?xml version="1.0" encoding="utf-8"?>
<!-- Generator: Adobe Illustrator 19.0.0, SVG Export Plug-In . SVG Version: 6.00 Build 0)  -->
<svg version="1.1" id="Layer_1" xmlns="http://www.w3.org/2000/svg" xmlns:xlink="http://www.w3.org/1999/xlink" x="0px" y="0px"
	 viewBox="0 0 126.2 126.2" style="enable-background:new 0 0 126.2 126.2;" xml:space="preserve">
<style type="text/css">
	.st0{fill:#F49416;}
	.st1{opacity:0.9;fill:#7C4C12;}
	.st2{opacity:0.6;fill:#7C4C12;}
</style>
<g>
	<g>
		<path id="XMLID_6_" class="st0" d="M126.2,63.1c0,0.7,0,1.4,0,2.1c0,0.4,0,0.8,0,1.1c0,0.8-0.1,1.5-0.2,2.3c0,0.4-0.1,0.8-0.1,1.1
			c-0.1,0.4-0.1,0.9-0.2,1.3c0,0.3-0.1,0.7-0.1,1c-0.1,0.4-0.1,0.8-0.2,1.2c0,0.3-0.1,0.6-0.2,0.9c-0.1,0.5-0.2,0.9-0.3,1.3
			c-0.1,0.4-0.2,0.8-0.3,1.3c-0.1,0.5-0.2,1-0.3,1.4c-0.3,1.1-0.6,2.2-0.9,3.3c-0.2,0.6-0.4,1.1-0.6,1.7c-0.1,0.4-0.2,0.7-0.4,1.1
			c-0.1,0.2-0.2,0.5-0.3,0.7c-0.2,0.6-0.4,1.1-0.7,1.7c-0.2,0.5-0.4,1-0.6,1.4c0,0.1-0.1,0.2-0.1,0.2c-0.1,0.3-0.3,0.7-0.4,1
			c0,0.1-0.1,0.1-0.1,0.2c-0.3,0.5-0.5,1.1-0.8,1.6c-0.2,0.4-0.4,0.8-0.7,1.3c-0.4,0.8-0.8,1.5-1.2,2.2c-0.3,0.5-0.6,1.1-0.9,1.6
			c0,0,0,0.1-0.1,0.1c-1.3,2-2.6,3.9-4.1,5.8c-0.3,0.4-0.6,0.7-0.9,1.1c-3,3.6-6.3,6.9-10,9.7c-0.7,0.5-1.3,1-2,1.5
			c-0.5,0.3-0.9,0.7-1.4,1c-0.4,0.3-0.8,0.6-1.3,0.8c-0.4,0.3-0.9,0.5-1.3,0.8c-0.9,0.5-1.8,1-2.7,1.5c-0.4,0.2-0.9,0.5-1.3,0.7
			c-1.7,0.9-3.4,1.7-5.2,2.4c-0.4,0.2-0.8,0.3-1.2,0.5c-0.7,0.3-1.4,0.5-2.1,0.8c-0.3,0.1-0.6,0.2-0.8,0.3c-1.6,0.5-3.3,1-5,1.4
			c-0.7,0.2-1.3,0.3-2,0.4c-0.6,0.1-1.2,0.2-1.7,0.3c-0.2,0-0.3,0.1-0.5,0.1c-0.6,0.1-1.1,0.2-1.7,0.3c-0.7,0.1-1.4,0.2-2.2,0.3
			c-0.6,0.1-1.3,0.1-1.9,0.2c-0.8,0.1-1.6,0.1-2.5,0.1c-0.6,0-1.3,0-1.9,0c-0.7,0-1.5,0-2.2,0c0,0,0,0,0,0c-0.7,0-1.4-0.1-2.2-0.1
			c-1-0.1-1.9-0.2-2.9-0.3c-1-0.1-1.9-0.2-2.8-0.4c-1.4-0.2-2.8-0.5-4.2-0.8c-0.7-0.2-1.4-0.3-2-0.5c0,0-0.1,0-0.1,0
			c-0.6-0.2-1.3-0.3-1.9-0.5c-1.4-0.4-2.9-0.9-4.3-1.5c-0.7-0.3-1.3-0.5-2-0.8c-0.1-0.1-0.3-0.1-0.4-0.2c-0.8-0.4-1.6-0.7-2.4-1.1
			c-0.8-0.4-1.6-0.8-2.4-1.2c-0.7-0.4-1.3-0.7-2-1.1c-0.2-0.1-0.3-0.2-0.5-0.3c-1.2-0.7-2.3-1.4-3.4-2.2c-1.1-0.8-2.2-1.6-3.3-2.4
			c-0.7-0.6-1.4-1.1-2.1-1.7c-4.9-4.2-9.2-9.1-12.6-14.7c-1.4-2.2-2.6-4.5-3.7-6.9c-0.2-0.3-0.3-0.7-0.4-1l0-0.1
			c-1-2.2-1.8-4.4-2.5-6.8l0,0c-1.3-4.2-2.1-8.5-2.5-13v0C0.1,66.8,0,65,0,63.1c0-3.7,0.3-7.4,1-10.9v-0.1C2,46.4,3.7,41,6.2,35.9
			l0.1-0.1c1.1-2.3,2.4-4.5,3.7-6.7L10,29C21.2,11.6,40.8,0,63.1,0c3.6,0,7.1,0.3,10.5,0.9C74.3,1,75,1.2,75.7,1.3
			c0.5,0.1,1,0.2,1.4,0.3c0.7,0.2,1.3,0.3,2,0.5c0.1,0,0.2,0,0.3,0.1c0.7,0.2,1.5,0.4,2.2,0.6c0.2,0,0.3,0.1,0.4,0.1
			c0.5,0.2,1.1,0.3,1.6,0.5c0,0,0.1,0,0.1,0c0.5,0.2,1.1,0.4,1.6,0.6c0.2,0.1,0.4,0.1,0.6,0.2C87.7,5,89.4,5.7,91,6.5
			c0.3,0.2,0.7,0.3,1,0.5c1.2,0.6,2.4,1.3,3.6,2c0.3,0.2,0.6,0.4,0.9,0.6c1.6,1,3.2,2.1,4.7,3.3c0.4,0.3,0.7,0.6,1.1,0.8
			c0.7,0.6,1.4,1.1,2.1,1.7c0.3,0.3,0.7,0.6,1,0.9c0.3,0.3,0.7,0.6,1,0.9c0.7,0.6,1.3,1.3,1.9,1.9c1.6,1.6,3.1,3.3,4.5,5.1
			c0.6,0.7,1.1,1.4,1.6,2.2c0.6,0.8,1.2,1.7,1.8,2.6c0,0.1,0.1,0.1,0.1,0.2c0.5,0.7,0.9,1.5,1.3,2.2c0.5,0.8,0.9,1.6,1.3,2.4
			c0.4,0.7,0.7,1.4,1.1,2.1h0c0.1,0.2,0.2,0.4,0.3,0.5c0.3,0.6,0.6,1.3,0.9,1.9c0.3,0.7,0.6,1.4,0.8,2.1c0.1,0.2,0.1,0.3,0.2,0.5
			c0.3,0.7,0.5,1.4,0.7,2.1c0,0,0,0.1,0,0.2c0.3,0.8,0.5,1.6,0.7,2.4c0.2,0.8,0.5,1.6,0.7,2.5c0.1,0.3,0.2,0.6,0.2,0.9
			c0.1,0.5,0.2,0.9,0.3,1.4c0,0.2,0.1,0.4,0.1,0.6c0.1,0.4,0.1,0.7,0.2,1.1c0,0,0,0.1,0,0.1c0,0,0,0.1,0,0.1
			c0.1,0.5,0.2,1.1,0.3,1.6c0.1,0.4,0.1,0.8,0.2,1.2c0.1,0.4,0.1,0.8,0.1,1.1c0.1,0.8,0.2,1.7,0.2,2.6c0,0.7,0.1,1.4,0.1,2.2
			c0,0,0,0,0,0C126.2,61.7,126.2,62.4,126.2,63.1z"/>
		<path id="XMLID_5_" class="st1" d="M126.2,63.1c0,0.7,0,1.4,0,2.1c0,0.4,0,0.8,0,1.1c0,0.8-0.1,1.5-0.2,2.3c0,0.4-0.1,0.8-0.1,1.1
			c-0.1,0.4-0.1,0.9-0.2,1.3c0,0.3-0.1,0.7-0.1,1c-0.1,0.4-0.1,0.8-0.2,1.2c0,0.3-0.1,0.6-0.2,0.9c-0.1,0.5-0.2,0.9-0.3,1.3
			c-0.1,0.4-0.2,0.8-0.3,1.3c-0.1,0.5-0.2,1-0.3,1.4c-0.3,1.1-0.6,2.2-0.9,3.3c-0.2,0.6-0.4,1.1-0.6,1.7c-0.1,0.4-0.2,0.7-0.4,1.1
			c-0.1,0.2-0.2,0.5-0.3,0.7c-0.2,0.6-0.4,1.1-0.7,1.7c-0.2,0.5-0.4,1-0.6,1.4c0,0.1-0.1,0.2-0.1,0.2c-0.1,0.3-0.3,0.7-0.4,1
			c0,0.1-0.1,0.1-0.1,0.2c-0.3,0.5-0.5,1.1-0.8,1.6c-0.2,0.4-0.4,0.8-0.7,1.3c-0.4,0.8-0.8,1.5-1.2,2.2c-0.3,0.5-0.6,1.1-0.9,1.6
			c0,0,0,0.1-0.1,0.1c-1.3,2-2.6,3.9-4.1,5.8c-0.3,0.4-0.6,0.7-0.9,1.1c-3,3.6-6.3,6.9-10,9.7c-0.7,0.5-1.3,1-2,1.5
			c-0.5,0.3-0.9,0.7-1.4,1c-0.4,0.3-0.8,0.6-1.3,0.8c-0.4,0.3-0.9,0.5-1.3,0.8c-0.9,0.5-1.8,1-2.7,1.5c-0.4,0.2-0.9,0.5-1.3,0.7
			c-1.7,0.9-3.4,1.7-5.2,2.4c-0.4,0.2-0.8,0.3-1.2,0.5c-0.7,0.3-1.4,0.5-2.1,0.8c-0.3,0.1-0.6,0.2-0.8,0.3c-1.6,0.5-3.3,1-5,1.4
			c-0.7,0.2-1.3,0.3-2,0.4c-0.6,0.1-1.2,0.2-1.7,0.3c-0.2,0-0.3,0.1-0.5,0.1c-0.6,0.1-1.1,0.2-1.7,0.3c-0.7,0.1-1.4,0.2-2.2,0.3
			c-0.6,0.1-1.3,0.1-1.9,0.2c-0.8,0.1-1.6,0.1-2.5,0.1c-0.6,0-1.3,0-1.9,0c-0.7,0-1.5,0-2.2,0c0,0,0,0,0,0c-0.7,0-1.4-0.1-2.2-0.1
			c-1-0.1-1.9-0.2-2.9-0.3c-1-0.1-1.9-0.2-2.8-0.4c-1.4-0.2-2.8-0.5-4.2-0.8c-0.7-0.2-1.4-0.3-2-0.5c0,0-0.1,0-0.1,0
			c-0.6-0.2-1.3-0.3-1.9-0.5c-1.4-0.4-2.9-0.9-4.3-1.5c-0.7-0.3-1.3-0.5-2-0.8c-0.1-0.1-0.3-0.1-0.4-0.2c-0.8-0.4-1.6-0.7-2.4-1.1
			c-0.8-0.4-1.6-0.8-2.4-1.2c-0.7-0.4-1.3-0.7-2-1.1c-0.2-0.1-0.3-0.2-0.5-0.3c-1.2-0.7-2.3-1.4-3.4-2.2c-1.1-0.8-2.2-1.6-3.3-2.4
			c-0.7-0.6-1.4-1.1-2.1-1.7c3.4,0.6,6.9,0.9,10.5,0.9c15.9,0,30.4-5.8,41.5-15.5c2.4-2.1,4.7-4.4,6.8-6.9c0.3-0.3,0.6-0.7,0.8-1
			c1.8-2.2,3.4-4.5,4.9-6.9c2.5-4,4.5-8.4,6-13c1.7-5.3,2.8-10.8,3.1-16.6c0.1-1.1,0.1-2.2,0.1-3.3c0-4.4-0.5-8.8-1.3-12.9
			c-0.5-2.3-1.1-4.6-1.8-6.9C88.9,18,82.3,8.3,73.6,0.9C74.3,1,75,1.2,75.7,1.3c0.5,0.1,1,0.2,1.4,0.3c0.7,0.2,1.3,0.3,2,0.5
			c0.1,0,0.2,0,0.3,0.1c0.7,0.2,1.5,0.4,2.2,0.6c0.2,0,0.3,0.1,0.4,0.1c0.5,0.2,1.1,0.3,1.6,0.5c0,0,0.1,0,0.1,0
			C84.5,3.7,85.2,4,86,4.3C87.7,5,89.4,5.7,91,6.5c0.3,0.2,0.7,0.3,1,0.5c1.2,0.6,2.4,1.3,3.6,2c0.3,0.2,0.6,0.4,0.9,0.6
			c1.6,1,3.2,2.1,4.7,3.3c0.4,0.3,0.7,0.6,1.1,0.8c0.7,0.6,1.4,1.1,2.1,1.7c0.3,0.3,0.7,0.6,1,0.9c0.3,0.3,0.7,0.6,1,0.9
			c0.7,0.6,1.3,1.3,1.9,1.9c1.6,1.6,3.1,3.3,4.5,5.1c0.6,0.7,1.1,1.4,1.6,2.2c0.6,0.8,1.2,1.7,1.8,2.6c0,0.1,0.1,0.1,0.1,0.2
			c0.5,0.7,0.9,1.5,1.3,2.2c0.5,0.8,0.9,1.6,1.3,2.4c0.4,0.7,0.7,1.4,1.1,2.1h0c0.1,0.2,0.2,0.4,0.3,0.5c0.3,0.6,0.6,1.3,0.9,1.9
			c0.3,0.7,0.6,1.4,0.8,2.1c0.1,0.2,0.1,0.3,0.2,0.5c0.3,0.7,0.5,1.4,0.7,2.1c0,0,0,0.1,0,0.2c0.3,0.8,0.5,1.6,0.7,2.4
			c0.2,0.8,0.5,1.6,0.7,2.5c0.1,0.3,0.2,0.6,0.2,0.9c0.1,0.5,0.2,0.9,0.3,1.4c0,0.2,0.1,0.4,0.1,0.6c0.1,0.4,0.1,0.7,0.2,1.1
			c0,0,0,0.1,0,0.1c0,0,0,0.1,0,0.1c0.1,0.5,0.2,1.1,0.3,1.6c0.1,0.4,0.1,0.8,0.2,1.2c0.1,0.4,0.1,0.8,0.1,1.1
			c0.1,0.8,0.2,1.7,0.2,2.6c0,0.7,0.1,1.4,0.1,2.2c0,0,0,0,0,0C126.2,61.7,126.2,62.4,126.2,63.1z"/>
	</g>
	<polygon id="XMLID_4_" class="st2" points="120.1,35.9 120.1,35.9 94.4,35.9 6.2,35.9 6.2,35.8 9.9,29.1 10,29 92.5,29 116.2,29 	
		"/>
	<path id="XMLID_3_" class="st2" d="M126.2,63.1c0,0.7,0,1.4,0,2.1c0,0.4,0,0.8,0,1.1c0,0.8-0.1,1.5-0.2,2.3H0.2v0L1,52.2v-0.1
		h124.3c0,0,0,0.1,0,0.1c0.1,0.5,0.2,1.1,0.3,1.6c0.1,0.4,0.1,0.8,0.2,1.2c0.1,0.4,0.1,0.8,0.1,1.1c0.1,0.8,0.2,1.7,0.2,2.6
		c0,0.7,0.1,1.4,0.1,2.2c0,0,0,0,0,0C126.2,61.7,126.2,62.4,126.2,63.1z"/>
	<path id="XMLID_2_" class="st2" d="M123.5,81.7c-0.2,0.6-0.4,1.1-0.6,1.7c-0.1,0.4-0.2,0.7-0.4,1.1c-0.1,0.2-0.2,0.5-0.3,0.7
		c-0.2,0.6-0.4,1.1-0.7,1.7c-0.2,0.5-0.4,1-0.6,1.4c0,0.1-0.1,0.2-0.1,0.2H5.3l0-0.1l-2.5-6.8l0,0H123.5z"/>
	<path id="XMLID_1_" class="st2" d="M120.5,89.5c0,0.1-0.1,0.1-0.1,0.2c-0.3,0.5-0.5,1.1-0.8,1.6c-0.2,0.4-0.4,0.8-0.7,1.3
		c-0.4,0.8-0.8,1.5-1.2,2.2c-0.3,0.5-0.6,1.1-0.9,1.6c0,0,0,0.1-0.1,0.1H9.5c-1.4-2.2-2.6-4.5-3.7-6.9H120.5z"/>
</g>
</svg>
