<?xml version="1.0" encoding="utf-8"?>
<!-- Generator: Adobe Illustrator 19.0.0, SVG Export Plug-In . SVG Version: 6.00 Build 0)  -->
<svg version="1.1" id="Layer_1" xmlns="http://www.w3.org/2000/svg" xmlns:xlink="http://www.w3.org/1999/xlink" x="0px" y="0px"
	 viewBox="0 0 40.6 40.6" style="enable-background:new 0 0 40.6 40.6;" xml:space="preserve">
<style type="text/css">
	.st0{fill:#B2B5B6;}
	.st1{opacity:0.9;fill:#5A5B5C;}
	.st2{fill:#858789;}
</style>
<g>
	<circle id="XMLID_9_" class="st0" cx="20.3" cy="20.3" r="20.3"/>
	<path id="XMLID_8_" class="st1" d="M23.7,0.3C28,4,30.8,9.5,30.8,15.7c0,11.2-9.1,20.3-20.3,20.3c-1.2,0-2.3-0.1-3.4-0.3
		c3.5,3,8.2,4.9,13.2,4.9c11.2,0,20.3-9.1,20.3-20.3C40.6,10.2,33.3,1.9,23.7,0.3z"/>
	<path id="XMLID_7_" class="st2" d="M8.6,5.4c-2,0-2,3.1,0,3.1C10.5,8.5,10.5,5.4,8.6,5.4z"/>
	<path id="XMLID_6_" class="st2" d="M18.1,6.1c-2,0-2,3.1,0,3.1C20,9.1,20,6.1,18.1,6.1z"/>
	<path id="XMLID_5_" class="st2" d="M12.5,17.1c-2,0-2,3.1,0,3.1C14.5,20.2,14.5,17.1,12.5,17.1z"/>
	<path id="XMLID_4_" class="st2" d="M4.9,18c-2,0-2,3.1,0,3.1C6.8,21.1,6.8,18,4.9,18z"/>
	<path id="XMLID_3_" class="st2" d="M4.9,27.2c-2,0-2,3.1,0,3.1C6.8,30.3,6.8,27.2,4.9,27.2z"/>
	<path id="XMLID_2_" class="st2" d="M23.6,11.9c-2,0-2,3.1,0,3.1C25.5,14.9,25.5,11.9,23.6,11.9z"/>
	<path id="XMLID_1_" class="st2" d="M15,24.7c-2,0-2,3.1,0,3.1C17,27.8,17,24.7,15,24.7z"/>
</g>
</svg>
