<?xml version="1.0" encoding="utf-8"?>
<!-- Generator: Adobe Illustrator 19.0.0, SVG Export Plug-In . SVG Version: 6.00 Build 0)  -->
<svg version="1.1" id="Layer_1" xmlns="http://www.w3.org/2000/svg" xmlns:xlink="http://www.w3.org/1999/xlink" x="0px" y="0px"
	 viewBox="0 0 192.6 91" style="enable-background:new 0 0 192.6 91;" xml:space="preserve">
<style type="text/css">
	.st0{fill:#F5D76E;}
	.st1{fill:#997814;}
	.st2{fill:#E5D39A;}
	.st3{fill:#F7DF8B;}
	.st4{fill:#E5CA76;}
	.st5{fill:#746B4E;}
	.st6{fill:#BA9913;}
	.st7{fill:#F7CA18;}
</style>
<g>
	<g>
		<circle id="XMLID_10_" class="st0" cx="96.3" cy="45.6" r="45.6"/>
		<circle id="XMLID_9_" class="st0" cx="96.3" cy="45.6" r="45.6"/>
		<path id="XMLID_8_" class="st1" d="M139.9,32.5c-12.6,4.2-27,10.6-43,15.2c-15.9,4.5-31.6,6.8-44.6,9.9c-0.4-1.3-0.6-2.4-0.6-2.6
			c11.1-2.1,27-6,44.3-10.9c17.4-5,32.5-10.2,43-14.2C139.1,30,139.7,31.2,139.9,32.5z"/>
		<path id="XMLID_7_" class="st2" d="M124.1,9.5C113,1,98.2-2.4,83.7,1.8C69.3,5.9,58.5,16.6,53.6,29.7L124.1,9.5z"/>
		<path id="XMLID_6_" class="st3" d="M52,34.7c-1.1,4.7-1.5,9.6-1.1,14.6l86-24.6c-2.3-4.5-5.2-8.4-8.7-11.8L52,34.7z"/>
		<path id="XMLID_5_" class="st4" d="M66.3,79.9c11.2,9.8,27.1,13.9,42.5,9.5c15.4-4.4,26.7-16.2,31.1-30.5L66.3,79.9z"/>
		<path id="XMLID_4_" class="st5" d="M140.2,33.1C133.3,8.9,108.1-5.1,83.9,1.8c-3.2,0.9-6.3,2.2-9.1,3.7
			c20.7-1.1,40.2,12.2,46.1,33c6,21-3.7,42.7-22.2,52.6c3.4-0.2,6.8-0.7,10.2-1.7C133.1,82.5,147.1,57.2,140.2,33.1z"/>
	</g>
	<g>
		<path id="XMLID_3_" class="st6" d="M137.2,25.5c15.5-3.1,24.5-3.9,25.1-1.9c1,3.6-28.1,15-65,25.5C60.4,59.7,29.7,65.3,28.7,61.7
			c-0.6-2,7.5-6.2,22.3-11.7C19.2,60.6-1,69.6,0,73.1c1.4,4.9,45.6-3.5,98.8-18.7C152,39.2,194,22.9,192.6,18.1
			C191.6,14.6,169.7,17.7,137.2,25.5z"/>
		<path id="XMLID_2_" class="st1" d="M137.1,25.6c14-2.9,18.1-2.3,18.6-0.7c0.8,2.9-25.6,13-58.9,22.5c-33.4,9.5-61.1,14.9-61.9,12
			c-0.5-1.7,2.8-4.5,16.1-9.3c0,0,0-0.3,0-0.3C22.2,59.3,8.1,66.6,8.9,69.4c1.1,4,41-4,89.1-17.7c48.1-13.7,86.2-28.1,85-32.1
			c-0.8-2.8-17.1-1.3-45.9,5.6C136.9,25.4,137.4,25.5,137.1,25.6z"/>
		<path id="XMLID_1_" class="st7" d="M137.2,25.7c13.7-3,16.7-2.3,17.1-0.8c0.8,2.6-25.1,12.3-57.8,21.6
			c-32.7,9.3-59.7,14.8-60.5,12.1c-0.4-1.5,1.9-3.8,14.9-8.5c0,0,0-0.2,0-0.2C22.8,59.2,9.9,65.8,10.6,68.3c1,3.6,40-4.4,87.1-17.9
			C144.7,37,182,23.2,181,19.7c-0.7-2.5-15.6-1.1-43.7,5.8C137,25.5,137.5,25.7,137.2,25.7z"/>
	</g>
</g>
</svg>
