<?xml version="1.0" encoding="utf-8"?>
<!-- Generator: Adobe Illustrator 19.0.0, SVG Export Plug-In . SVG Version: 6.00 Build 0)  -->
<svg version="1.1" id="Layer_1" xmlns="http://www.w3.org/2000/svg" xmlns:xlink="http://www.w3.org/1999/xlink" x="0px" y="0px"
	 viewBox="0 0 178 178" style="enable-background:new 0 0 178 178;" xml:space="preserve">
<style type="text/css">
	.st0{fill:#F49416;}
	.st1{fill:#E87E08;}
	.st2{fill:#D35615;}
</style>
<g id="XMLID_2_">
	<path id="XMLID_5_" class="st0" d="M89,0C39.8,0,0,39.8,0,89c0,49.1,39.8,89,89,89c49.1,0,89-39.8,89-89C178,39.8,138.1,0,89,0z
		 M89,153.9c-35.9,0-64.9-29.1-64.9-64.9c0-35.9,29.1-64.9,64.9-64.9c35.9,0,64.9,29.1,64.9,64.9C153.9,124.8,124.8,153.9,89,153.9z
		"/>
	<circle id="XMLID_4_" class="st1" cx="89" cy="89" r="53.4"/>
	<circle id="XMLID_3_" class="st2" cx="89" cy="89" r="19.6"/>
</g>
</svg>
